<svg width="20px" height="12px" viewBox="0 0 20 12" version="1.1" xmlns="http://www.w3.org/2000/svg" xmlns:xlink="http://www.w3.org/1999/xlink">
    <path d="M513.15625,366.621094 C513.15625,366.542968 513.172526,366.461589 513.205078,366.376953 C513.23763,366.292317 513.286458,366.217448 513.351562,366.152344 C513.481771,366.035156 513.63802,365.976562 513.820312,365.976562 C514.002605,365.976562 514.158854,366.035156 514.289062,366.152344 L523.117188,374.980469 L531.808594,366.289062 C531.938803,366.158854 532.095051,366.09375 532.277344,366.09375 C532.459636,366.09375 532.615885,366.158854 532.746094,366.289062 C532.876303,366.419271 532.941406,366.57552 532.941406,366.757812 C532.941406,366.940105 532.876303,367.096354 532.746094,367.226562 L523.585938,376.386719 C523.455729,376.516928 523.29948,376.582031 523.117188,376.582031 C522.934895,376.582031 522.778646,376.516928 522.648438,376.386719 L513.351562,367.109375 C513.286458,367.044271 513.23763,366.969401 513.205078,366.884766 C513.172526,366.80013 513.15625,366.71224 513.15625,366.621094 Z" id="Arrow-down---simple-line-icons" stroke="none" fill="#000000" fill-rule="evenodd"></path>
</svg>